PathFileType	4	(X/Y/Z)	Run_400 01
DataRate	CameraRate	NumFrames	NumMarkers	Units	OrigDataRate	OrigDataStartFrame	OrigNumFrames
120	120	4	42	mm	120	428	128
Frame#	Time	LASI			RASI			LPSI			RTH1			RTH2			RTH3			LTH1			LTH2			LTH3			RTB1			RTB2			RTB3			LTB1			LTB2			LTB3			RCAL			RTOE			RMT5			LCAL			LTOE			LMT5			LACR			RACR			CLAV			C7			RUA1			RUA2			RUA3			RLEL			RMEL			LUA1			LUA2			LUA3			LLEL			LMEL			RFAsuperior			RFAradius			LFAsuperior			LFAradius			LFAulna			RFAulna			RPSI		
		X1	Y1	Z1	X2	Y2	Z2	X3	Y3	Z3	X4	Y4	Z4	X5	Y5	Z5	X6	Y6	Z6	X7	Y7	Z7	X8	Y8	Z8	X9	Y9	Z9	X10	Y10	Z10	X11	Y11	Z11	X12	Y12	Z12	X13	Y13	Z13	X14	Y14	Z14	X15	Y15	Z15	X16	Y16	Z16	X17	Y17	Z17	X18	Y18	Z18	X19	Y19	Z19	X20	Y20	Z20	X21	Y21	Z21	X22	Y22	Z22	X23	Y23	Z23	X24	Y24	Z24	X25	Y25	Z25	X26	Y26	Z26	X27	Y27	Z27	X28	Y28	Z28	X29	Y29	Z29	X30	Y30	Z30	X31	Y31	Z31	X32	Y32	Z32	X33	Y33	Z33	X34	Y34	Z34	X35	Y35	Z35	X36	Y36	Z36	X37	Y37	Z37	X38	Y38	Z38	X39	Y39	Z39	X40	Y40	Z40	X41	Y41	Z41	X42	Y42	Z42	

428	  3.566667	1144.114038	1027.013702	-412.695180	1136.416716	1007.132489	-182.052187	978.259915	1072.039246	-352.567308	1027.430665	865.875695	-127.028534	1031.174864	709.446404	-161.987192	934.584475	649.419149	-171.682349	1148.441505	899.772248	-483.956549	1267.012393	870.573980	-457.304265	1290.636268	734.007998	-466.425915	864.612863	418.863139	-234.085688	785.796556	405.414387	-175.303335	743.965222	284.381660	-238.468599	1344.014124	527.508592	-401.502221	1242.023668	477.822544	-442.499160	1204.481835	384.078633	-378.315397	570.766914	259.148294	-263.273924	694.066443	 93.978859	-300.686163	652.864688	 68.814375	-200.910798	1033.671410	356.066554	-353.380566	1188.803055	216.971539	-334.669847	1153.359071	197.547432	-434.571519	1078.983234	1511.116035	-472.806254	1165.096204	1496.127254	-123.858015	1193.774938	1454.802155	-297.341161	1079.309527	1536.109737	-299.525327	1148.489642	1412.523557	-73.507560	1151.319648	1322.632938	-87.394040	1066.576744	1327.709723	-49.399420	1049.266045	1213.766400	-20.686951	1015.642793	1208.937770	-85.074178	1012.603846	1478.441958	-510.271642	951.182911	1451.194382	-461.572248	949.067381	1397.030912	-531.450854	828.650226	1356.251440	-534.311298	826.288001	1351.939175	-460.002171	1146.416446	1209.282130	-40.954620	1292.478933	1168.488629	-131.532112	878.765574	1293.404595	-559.038829	991.867395	1127.366407	-536.163956	928.305229	1108.280007	-551.751796	1275.015615	1102.789334	-126.681185	978.292114	1069.408734	-252.858200	
429	  3.575000	1144.477232	1032.903766	-412.384176	1138.278588	1011.072699	-182.380124	979.372906	1079.067676	-350.277377	1026.893507	871.362587	-125.439639	1025.429454	715.028555	-161.993207	927.383838	658.589129	-173.068535	1149.063363	911.376732	-485.715045	1266.876467	875.768830	-457.285906	1287.862067	737.514626	-463.658931	853.310022	428.865330	-234.384484	775.137716	416.197264	-173.667776	730.514144	295.356255	-236.683150	1354.805687	529.898129	-403.833392	1257.578469	470.948726	-443.282874	1229.023578	374.190692	-379.086792	561.100704	278.592288	-256.841800	668.960834	103.290070	-298.585657	628.737922	 80.431582	-199.350381	1061.753793	330.704955	-353.303778	1228.773550	206.567439	-332.906401	1194.366598	181.741529	-432.643917	1078.397709	1515.955843	-472.706248	1166.343101	1503.050453	-125.862888	1193.732413	1460.252662	-298.508096	1079.282397	1541.026810	-300.320124	1150.309841	1420.816282	-74.468823	1153.027079	1330.698544	-86.774989	1068.192930	1336.417780	-49.581978	1051.103822	1222.102030	-19.582468	1015.550929	1217.003355	-83.729657	1011.845593	1486.438837	-509.787680	951.424385	1460.232541	-460.216053	946.577936	1406.014482	-530.512511	825.510271	1366.190853	-531.767886	824.662596	1362.824919	-457.674027	1147.773296	1219.056586	-41.401772	1293.305319	1180.218595	-134.052986	874.666672	1303.745540	-557.459108	990.574415	1139.084568	-536.428824	927.144720	1119.101482	-550.627655	1277.451402	1114.316198	-129.314695	980.715034	1075.483074	-250.830580	
430	  3.583333	1144.455517	1037.704303	-411.975187	1139.421222	1014.881551	-181.933966	980.182498	1085.447036	-348.278796	1026.186228	876.615211	-124.259194	1020.998231	720.309471	-161.921223	922.456591	666.187156	-174.924693	1148.122715	918.587911	-485.899408	1265.592235	878.367472	-458.176763	1283.667933	738.527536	-459.536554	844.290905	437.446350	-236.275016	767.642042	425.489751	-173.385114	717.797208	306.734515	-236.017203	1364.110147	531.247112	-405.761569	1272.638279	463.660703	-444.008602	1253.062715	364.696751	-379.566582	551.052740	298.677692	-250.560638	644.307089	115.604310	-297.250295	605.867725	 94.679974	-197.980500	1090.522455	305.867542	-353.174802	1268.028639	197.937324	-331.450931	1235.526241	167.899955	-430.685134	1078.060163	1519.954862	-472.944637	1167.063374	1509.209662	-127.816217	1193.766451	1464.891494	-299.605855	1079.215316	1545.310958	-301.285955	1151.465169	1428.413821	-75.390194	1154.425279	1338.192151	-86.040018	1069.434396	1344.053080	-50.088333	1052.366347	1229.519500	-18.818652	1015.039178	1224.172513	-82.666397	1011.403763	1493.415365	-509.632696	952.005572	1467.869331	-459.179446	944.393300	1413.897140	-529.707552	822.790288	1374.987990	-529.365703	823.318481	1372.261254	-455.697276	1148.544958	1227.075491	-41.950219	1293.608568	1189.439929	-136.117203	871.188211	1312.999534	-556.059396	989.871534	1149.824631	-536.763905	926.658837	1128.829508	-549.967287	1278.883594	1123.432263	-131.211285	982.727812	1081.043572	-249.150803	
431	  3.591667	1144.085391	1041.533453	-411.465199	1139.961783	1018.532708	-180.954079	980.741581	1090.976246	-346.668820	1025.212241	881.584421	-123.704939	1018.410248	724.938824	-161.828365	920.096890	671.619900	-176.579184	1145.745917	919.832958	-483.583818	1262.668877	878.482787	-460.102340	1278.345242	737.297550	-454.761309	837.043335	444.395151	-239.065076	762.698075	433.490030	-174.029748	705.455542	318.706424	-236.081324	1371.694788	531.547369	-406.286560	1287.267343	455.838998	-444.522903	1276.335972	355.526249	-379.660864	539.817642	319.322058	-244.676818	620.437261	131.162581	-296.702218	584.295327	111.302832	-196.919507	1119.736936	282.089394	-353.183935	1305.815460	190.782849	-330.043257	1276.157880	155.781519	-428.716823	1077.904473	1523.208567	-473.575956	1167.316762	1514.495097	-129.685484	1193.881310	1468.850643	-300.714926	1079.209175	1549.038646	-302.383692	1151.934666	1435.099274	-76.262618	1155.435443	1344.931274	-85.336761	1070.206882	1350.495457	-50.794745	1053.033533	1235.947830	-18.375890	1014.378933	1230.424404	-81.892219	1011.213085	1499.176130	-509.860346	952.672975	1473.952041	-458.615364	942.566666	1420.476914	-529.111927	820.517736	1382.455664	-527.237685	822.180514	1380.044946	-454.046917	1148.793862	1233.325395	-42.481557	1293.430480	1195.997946	-137.695526	868.387819	1321.038795	-554.898939	989.792660	1159.458994	-537.199435	926.858359	1137.321494	-549.714756	1279.294792	1129.981318	-132.376707	984.014282	1086.057781	-247.860416	
